<mxfile host="app.diagrams.net" modified="2022-08-03T11:47:43.018Z" agent="5.0 (X11; Linux x86_64) AppleWebKit/537.36 (KHTML, like Gecko) Chrome/102.0.5005.136 Safari/537.36" etag="XK6xD5qqNrFJbDTkO3qY" version="20.2.2" type="github">
  <diagram id="81YoFrNnC8OWE1Ijk2aw" name="Page-1">
    <mxGraphModel dx="1643" dy="449" grid="1" gridSize="10" guides="1" tooltips="1" connect="1" arrows="1" fold="1" page="1" pageScale="1" pageWidth="850" pageHeight="1100" math="0" shadow="0">
      <root>
        <mxCell id="0" />
        <mxCell id="1" parent="0" />
        <mxCell id="TF-rLpj3DMXVE8Nql6JV-51" style="edgeStyle=orthogonalEdgeStyle;rounded=1;orthogonalLoop=1;jettySize=auto;html=1;exitX=0.25;exitY=1;exitDx=0;exitDy=0;entryX=0.5;entryY=0;entryDx=0;entryDy=0;fontColor=#FFFFFF;" edge="1" parent="1" source="TF-rLpj3DMXVE8Nql6JV-1" target="TF-rLpj3DMXVE8Nql6JV-2">
          <mxGeometry relative="1" as="geometry">
            <Array as="points">
              <mxPoint x="369" y="120" />
              <mxPoint x="-480" y="120" />
            </Array>
          </mxGeometry>
        </mxCell>
        <mxCell id="TF-rLpj3DMXVE8Nql6JV-52" style="edgeStyle=orthogonalEdgeStyle;rounded=1;orthogonalLoop=1;jettySize=auto;html=1;exitX=0.5;exitY=1;exitDx=0;exitDy=0;entryX=0.5;entryY=0;entryDx=0;entryDy=0;fontColor=#FFFFFF;" edge="1" parent="1" source="TF-rLpj3DMXVE8Nql6JV-1" target="TF-rLpj3DMXVE8Nql6JV-46">
          <mxGeometry relative="1" as="geometry">
            <Array as="points">
              <mxPoint x="426" y="140" />
              <mxPoint x="220" y="140" />
            </Array>
          </mxGeometry>
        </mxCell>
        <mxCell id="TF-rLpj3DMXVE8Nql6JV-60" style="edgeStyle=orthogonalEdgeStyle;rounded=1;orthogonalLoop=1;jettySize=auto;html=1;exitX=0.75;exitY=1;exitDx=0;exitDy=0;fontColor=#FFFFFF;" edge="1" parent="1" source="TF-rLpj3DMXVE8Nql6JV-1" target="TF-rLpj3DMXVE8Nql6JV-53">
          <mxGeometry relative="1" as="geometry">
            <Array as="points">
              <mxPoint x="482" y="120" />
              <mxPoint x="580" y="120" />
            </Array>
          </mxGeometry>
        </mxCell>
        <mxCell id="TF-rLpj3DMXVE8Nql6JV-92" style="edgeStyle=orthogonalEdgeStyle;rounded=1;orthogonalLoop=1;jettySize=auto;html=1;entryX=0.5;entryY=0;entryDx=0;entryDy=0;fontColor=#FFFFFF;" edge="1" parent="1" source="TF-rLpj3DMXVE8Nql6JV-1" target="TF-rLpj3DMXVE8Nql6JV-61">
          <mxGeometry relative="1" as="geometry" />
        </mxCell>
        <mxCell id="TF-rLpj3DMXVE8Nql6JV-1" value="Классификация тестирования" style="rounded=1;whiteSpace=wrap;html=1;" vertex="1" parent="1">
          <mxGeometry x="313" y="30" width="225" height="60" as="geometry" />
        </mxCell>
        <mxCell id="TF-rLpj3DMXVE8Nql6JV-4" value="" style="edgeStyle=orthogonalEdgeStyle;rounded=1;orthogonalLoop=1;jettySize=auto;html=1;exitX=0.25;exitY=1;exitDx=0;exitDy=0;" edge="1" parent="1" source="TF-rLpj3DMXVE8Nql6JV-2" target="TF-rLpj3DMXVE8Nql6JV-3">
          <mxGeometry relative="1" as="geometry" />
        </mxCell>
        <mxCell id="TF-rLpj3DMXVE8Nql6JV-18" style="edgeStyle=orthogonalEdgeStyle;rounded=1;orthogonalLoop=1;jettySize=auto;html=1;exitX=0.5;exitY=1;exitDx=0;exitDy=0;entryX=0.5;entryY=0;entryDx=0;entryDy=0;" edge="1" parent="1" source="TF-rLpj3DMXVE8Nql6JV-2" target="TF-rLpj3DMXVE8Nql6JV-5">
          <mxGeometry relative="1" as="geometry" />
        </mxCell>
        <mxCell id="TF-rLpj3DMXVE8Nql6JV-33" style="edgeStyle=orthogonalEdgeStyle;rounded=1;orthogonalLoop=1;jettySize=auto;html=1;exitX=0.602;exitY=1.006;exitDx=0;exitDy=0;fontColor=#FFFFFF;exitPerimeter=0;" edge="1" parent="1" source="TF-rLpj3DMXVE8Nql6JV-2" target="TF-rLpj3DMXVE8Nql6JV-7">
          <mxGeometry relative="1" as="geometry">
            <Array as="points">
              <mxPoint x="-460" y="220" />
              <mxPoint x="-410" y="220" />
            </Array>
          </mxGeometry>
        </mxCell>
        <mxCell id="TF-rLpj3DMXVE8Nql6JV-34" style="edgeStyle=orthogonalEdgeStyle;rounded=1;orthogonalLoop=1;jettySize=auto;html=1;exitX=0.886;exitY=1.006;exitDx=0;exitDy=0;entryX=0.5;entryY=0;entryDx=0;entryDy=0;fontColor=#FFFFFF;exitPerimeter=0;" edge="1" parent="1" source="TF-rLpj3DMXVE8Nql6JV-2" target="TF-rLpj3DMXVE8Nql6JV-31">
          <mxGeometry relative="1" as="geometry" />
        </mxCell>
        <mxCell id="TF-rLpj3DMXVE8Nql6JV-2" value="По уровню" style="rounded=1;whiteSpace=wrap;html=1;fillColor=#f5f5f5;fontColor=#333333;strokeColor=#666666;" vertex="1" parent="1">
          <mxGeometry x="-580" y="160" width="200" height="40" as="geometry" />
        </mxCell>
        <mxCell id="TF-rLpj3DMXVE8Nql6JV-3" value="Компонентное / Модульное / Юнит тестирование" style="whiteSpace=wrap;html=1;rounded=1;fillColor=#9999FF;fontColor=#FFFFFF;" vertex="1" parent="1">
          <mxGeometry x="-720" y="240" width="120" height="60" as="geometry" />
        </mxCell>
        <mxCell id="TF-rLpj3DMXVE8Nql6JV-21" value="" style="edgeStyle=orthogonalEdgeStyle;rounded=1;orthogonalLoop=1;jettySize=auto;html=1;" edge="1" parent="1" source="TF-rLpj3DMXVE8Nql6JV-5" target="TF-rLpj3DMXVE8Nql6JV-20">
          <mxGeometry relative="1" as="geometry">
            <Array as="points">
              <mxPoint x="-540" y="320" />
              <mxPoint x="-620" y="320" />
            </Array>
          </mxGeometry>
        </mxCell>
        <mxCell id="TF-rLpj3DMXVE8Nql6JV-23" value="" style="edgeStyle=orthogonalEdgeStyle;rounded=1;orthogonalLoop=1;jettySize=auto;html=1;" edge="1" parent="1" source="TF-rLpj3DMXVE8Nql6JV-5" target="TF-rLpj3DMXVE8Nql6JV-22">
          <mxGeometry relative="1" as="geometry">
            <Array as="points">
              <mxPoint x="-500" y="320" />
              <mxPoint x="-440" y="320" />
            </Array>
          </mxGeometry>
        </mxCell>
        <mxCell id="TF-rLpj3DMXVE8Nql6JV-5" value="Интеграционное" style="whiteSpace=wrap;html=1;rounded=1;fillColor=#3333FF;fontColor=#FFFFFF;" vertex="1" parent="1">
          <mxGeometry x="-580" y="240" width="120" height="60" as="geometry" />
        </mxCell>
        <mxCell id="TF-rLpj3DMXVE8Nql6JV-7" value="Системное" style="whiteSpace=wrap;html=1;rounded=1;fillColor=#d80073;fontColor=#ffffff;strokeColor=#A50040;" vertex="1" parent="1">
          <mxGeometry x="-440" y="240" width="120" height="60" as="geometry" />
        </mxCell>
        <mxCell id="TF-rLpj3DMXVE8Nql6JV-9" style="edgeStyle=orthogonalEdgeStyle;rounded=0;orthogonalLoop=1;jettySize=auto;html=1;exitX=0.5;exitY=1;exitDx=0;exitDy=0;" edge="1" parent="1" source="TF-rLpj3DMXVE8Nql6JV-3" target="TF-rLpj3DMXVE8Nql6JV-3">
          <mxGeometry relative="1" as="geometry" />
        </mxCell>
        <mxCell id="TF-rLpj3DMXVE8Nql6JV-20" value="Тестирование интеграции компонентов" style="whiteSpace=wrap;html=1;rounded=1;fillColor=#ffe6cc;strokeColor=#d79b00;" vertex="1" parent="1">
          <mxGeometry x="-680" y="340" width="120" height="60" as="geometry" />
        </mxCell>
        <mxCell id="TF-rLpj3DMXVE8Nql6JV-25" value="" style="edgeStyle=orthogonalEdgeStyle;rounded=1;orthogonalLoop=1;jettySize=auto;html=1;" edge="1" parent="1" source="TF-rLpj3DMXVE8Nql6JV-22" target="TF-rLpj3DMXVE8Nql6JV-24">
          <mxGeometry relative="1" as="geometry">
            <Array as="points">
              <mxPoint x="-460" y="420" />
              <mxPoint x="-530" y="420" />
            </Array>
          </mxGeometry>
        </mxCell>
        <mxCell id="TF-rLpj3DMXVE8Nql6JV-27" value="" style="edgeStyle=orthogonalEdgeStyle;rounded=1;orthogonalLoop=1;jettySize=auto;html=1;fontColor=#FFFFFF;" edge="1" parent="1" source="TF-rLpj3DMXVE8Nql6JV-22" target="TF-rLpj3DMXVE8Nql6JV-26">
          <mxGeometry relative="1" as="geometry" />
        </mxCell>
        <mxCell id="TF-rLpj3DMXVE8Nql6JV-29" style="edgeStyle=orthogonalEdgeStyle;rounded=1;orthogonalLoop=1;jettySize=auto;html=1;exitX=0.672;exitY=0.989;exitDx=0;exitDy=0;entryX=0.5;entryY=0;entryDx=0;entryDy=0;fontColor=#FFFFFF;exitPerimeter=0;" edge="1" parent="1" source="TF-rLpj3DMXVE8Nql6JV-22" target="TF-rLpj3DMXVE8Nql6JV-28">
          <mxGeometry relative="1" as="geometry">
            <Array as="points">
              <mxPoint x="-419" y="420" />
              <mxPoint x="-347" y="420" />
            </Array>
          </mxGeometry>
        </mxCell>
        <mxCell id="TF-rLpj3DMXVE8Nql6JV-22" value="Системное интеграционное тестирование" style="whiteSpace=wrap;html=1;rounded=1;fillColor=#ffe6cc;strokeColor=#d79b00;" vertex="1" parent="1">
          <mxGeometry x="-500" y="340" width="120" height="60" as="geometry" />
        </mxCell>
        <mxCell id="TF-rLpj3DMXVE8Nql6JV-24" value="API" style="whiteSpace=wrap;html=1;rounded=1;fillColor=#d5e8d4;strokeColor=#82b366;" vertex="1" parent="1">
          <mxGeometry x="-570" y="440" width="80" height="40" as="geometry" />
        </mxCell>
        <mxCell id="TF-rLpj3DMXVE8Nql6JV-26" value="CLI" style="whiteSpace=wrap;html=1;rounded=1;fillColor=#d5e8d4;strokeColor=#82b366;" vertex="1" parent="1">
          <mxGeometry x="-480" y="440" width="80" height="40" as="geometry" />
        </mxCell>
        <mxCell id="TF-rLpj3DMXVE8Nql6JV-28" value="GUI" style="whiteSpace=wrap;html=1;rounded=1;fillColor=#d5e8d4;strokeColor=#82b366;" vertex="1" parent="1">
          <mxGeometry x="-387" y="440" width="80" height="40" as="geometry" />
        </mxCell>
        <mxCell id="TF-rLpj3DMXVE8Nql6JV-38" style="edgeStyle=orthogonalEdgeStyle;rounded=1;orthogonalLoop=1;jettySize=auto;html=1;exitX=0.25;exitY=1;exitDx=0;exitDy=0;entryX=0.5;entryY=0;entryDx=0;entryDy=0;fontColor=#FFFFFF;" edge="1" parent="1" source="TF-rLpj3DMXVE8Nql6JV-31">
          <mxGeometry relative="1" as="geometry">
            <mxPoint x="-261.0000000000002" y="340" as="targetPoint" />
          </mxGeometry>
        </mxCell>
        <mxCell id="TF-rLpj3DMXVE8Nql6JV-39" style="edgeStyle=orthogonalEdgeStyle;rounded=1;orthogonalLoop=1;jettySize=auto;html=1;exitX=0.5;exitY=1;exitDx=0;exitDy=0;fontColor=#FFFFFF;" edge="1" parent="1" source="TF-rLpj3DMXVE8Nql6JV-31" target="TF-rLpj3DMXVE8Nql6JV-37">
          <mxGeometry relative="1" as="geometry" />
        </mxCell>
        <mxCell id="TF-rLpj3DMXVE8Nql6JV-41" style="edgeStyle=orthogonalEdgeStyle;rounded=1;orthogonalLoop=1;jettySize=auto;html=1;exitX=0.75;exitY=1;exitDx=0;exitDy=0;entryX=0.5;entryY=0;entryDx=0;entryDy=0;fontColor=#FFFFFF;" edge="1" parent="1" source="TF-rLpj3DMXVE8Nql6JV-31" target="TF-rLpj3DMXVE8Nql6JV-40">
          <mxGeometry relative="1" as="geometry" />
        </mxCell>
        <mxCell id="TF-rLpj3DMXVE8Nql6JV-44" style="edgeStyle=orthogonalEdgeStyle;rounded=1;orthogonalLoop=1;jettySize=auto;html=1;exitX=0.25;exitY=1;exitDx=0;exitDy=0;entryX=0.5;entryY=0;entryDx=0;entryDy=0;fontColor=#FFFFFF;" edge="1" parent="1" source="TF-rLpj3DMXVE8Nql6JV-31" target="TF-rLpj3DMXVE8Nql6JV-42">
          <mxGeometry relative="1" as="geometry">
            <Array as="points">
              <mxPoint x="-130" y="330" />
              <mxPoint x="-180" y="330" />
            </Array>
          </mxGeometry>
        </mxCell>
        <mxCell id="TF-rLpj3DMXVE8Nql6JV-45" style="edgeStyle=orthogonalEdgeStyle;rounded=1;orthogonalLoop=1;jettySize=auto;html=1;exitX=0.75;exitY=1;exitDx=0;exitDy=0;entryX=0.5;entryY=0;entryDx=0;entryDy=0;fontColor=#FFFFFF;" edge="1" parent="1" source="TF-rLpj3DMXVE8Nql6JV-31" target="TF-rLpj3DMXVE8Nql6JV-43">
          <mxGeometry relative="1" as="geometry">
            <Array as="points">
              <mxPoint x="-70" y="330" />
              <mxPoint x="-22" y="330" />
            </Array>
          </mxGeometry>
        </mxCell>
        <mxCell id="TF-rLpj3DMXVE8Nql6JV-31" value="Приемочное" style="whiteSpace=wrap;html=1;rounded=1;fillColor=#60a917;fontColor=#ffffff;strokeColor=#2D7600;" vertex="1" parent="1">
          <mxGeometry x="-160" y="240" width="120" height="60" as="geometry" />
        </mxCell>
        <mxCell id="TF-rLpj3DMXVE8Nql6JV-35" value="Пользовательское приемочное тестирование UAT" style="whiteSpace=wrap;html=1;fillColor=#1ba1e2;rounded=1;strokeColor=#006EAF;fontColor=#ffffff;" vertex="1" parent="1">
          <mxGeometry x="-320" y="340" width="120" height="60" as="geometry" />
        </mxCell>
        <mxCell id="TF-rLpj3DMXVE8Nql6JV-37" value="Эксплуатационное" style="whiteSpace=wrap;html=1;fillColor=#1ba1e2;rounded=1;strokeColor=#006EAF;fontColor=#ffffff;" vertex="1" parent="1">
          <mxGeometry x="-160" y="340" width="120" height="60" as="geometry" />
        </mxCell>
        <mxCell id="TF-rLpj3DMXVE8Nql6JV-40" value="На соответствие контракту" style="whiteSpace=wrap;html=1;fillColor=#1ba1e2;rounded=1;strokeColor=#006EAF;fontColor=#ffffff;" vertex="1" parent="1">
          <mxGeometry y="340" width="120" height="60" as="geometry" />
        </mxCell>
        <mxCell id="TF-rLpj3DMXVE8Nql6JV-42" value="Альфа-тестирование" style="whiteSpace=wrap;html=1;fillColor=#1ba1e2;rounded=1;strokeColor=#006EAF;fontColor=#ffffff;" vertex="1" parent="1">
          <mxGeometry x="-240" y="420" width="120" height="60" as="geometry" />
        </mxCell>
        <mxCell id="TF-rLpj3DMXVE8Nql6JV-43" value="Бетта-тестирование" style="whiteSpace=wrap;html=1;fillColor=#1ba1e2;rounded=1;strokeColor=#006EAF;fontColor=#ffffff;" vertex="1" parent="1">
          <mxGeometry x="-82" y="420" width="120" height="60" as="geometry" />
        </mxCell>
        <mxCell id="TF-rLpj3DMXVE8Nql6JV-48" value="" style="edgeStyle=orthogonalEdgeStyle;rounded=1;orthogonalLoop=1;jettySize=auto;html=1;fontColor=#FFFFFF;exitX=0.25;exitY=1;exitDx=0;exitDy=0;" edge="1" parent="1" source="TF-rLpj3DMXVE8Nql6JV-46" target="TF-rLpj3DMXVE8Nql6JV-47">
          <mxGeometry relative="1" as="geometry">
            <Array as="points">
              <mxPoint x="170" y="220" />
              <mxPoint x="120" y="220" />
            </Array>
          </mxGeometry>
        </mxCell>
        <mxCell id="TF-rLpj3DMXVE8Nql6JV-50" style="edgeStyle=orthogonalEdgeStyle;rounded=1;orthogonalLoop=1;jettySize=auto;html=1;exitX=0.75;exitY=1;exitDx=0;exitDy=0;entryX=0.5;entryY=0;entryDx=0;entryDy=0;fontColor=#FFFFFF;" edge="1" parent="1" source="TF-rLpj3DMXVE8Nql6JV-46" target="TF-rLpj3DMXVE8Nql6JV-49">
          <mxGeometry relative="1" as="geometry" />
        </mxCell>
        <mxCell id="TF-rLpj3DMXVE8Nql6JV-46" value="По позитивности" style="rounded=1;whiteSpace=wrap;html=1;fillColor=#f5f5f5;fontColor=#333333;strokeColor=#666666;" vertex="1" parent="1">
          <mxGeometry x="120" y="160" width="200" height="40" as="geometry" />
        </mxCell>
        <mxCell id="TF-rLpj3DMXVE8Nql6JV-47" value="Позитивное" style="whiteSpace=wrap;html=1;fillColor=#d5e8d4;strokeColor=#82b366;rounded=1;" vertex="1" parent="1">
          <mxGeometry x="80" y="240" width="120" height="40" as="geometry" />
        </mxCell>
        <mxCell id="TF-rLpj3DMXVE8Nql6JV-49" value="Негативное" style="whiteSpace=wrap;html=1;fillColor=#f8cecc;strokeColor=#b85450;rounded=1;" vertex="1" parent="1">
          <mxGeometry x="250" y="240" width="120" height="40" as="geometry" />
        </mxCell>
        <mxCell id="TF-rLpj3DMXVE8Nql6JV-57" style="edgeStyle=orthogonalEdgeStyle;rounded=1;orthogonalLoop=1;jettySize=auto;html=1;exitX=0.25;exitY=1;exitDx=0;exitDy=0;entryX=0.5;entryY=0;entryDx=0;entryDy=0;fontColor=#FFFFFF;" edge="1" parent="1" source="TF-rLpj3DMXVE8Nql6JV-53" target="TF-rLpj3DMXVE8Nql6JV-54">
          <mxGeometry relative="1" as="geometry" />
        </mxCell>
        <mxCell id="TF-rLpj3DMXVE8Nql6JV-58" style="edgeStyle=orthogonalEdgeStyle;rounded=1;orthogonalLoop=1;jettySize=auto;html=1;exitX=0.5;exitY=1;exitDx=0;exitDy=0;entryX=0.5;entryY=0;entryDx=0;entryDy=0;fontColor=#FFFFFF;" edge="1" parent="1" source="TF-rLpj3DMXVE8Nql6JV-53" target="TF-rLpj3DMXVE8Nql6JV-55">
          <mxGeometry relative="1" as="geometry" />
        </mxCell>
        <mxCell id="TF-rLpj3DMXVE8Nql6JV-59" style="edgeStyle=orthogonalEdgeStyle;rounded=1;orthogonalLoop=1;jettySize=auto;html=1;exitX=0.75;exitY=1;exitDx=0;exitDy=0;fontColor=#FFFFFF;" edge="1" parent="1" source="TF-rLpj3DMXVE8Nql6JV-53" target="TF-rLpj3DMXVE8Nql6JV-56">
          <mxGeometry relative="1" as="geometry" />
        </mxCell>
        <mxCell id="TF-rLpj3DMXVE8Nql6JV-53" value="По степени важности" style="rounded=1;whiteSpace=wrap;html=1;fillColor=#f5f5f5;fontColor=#333333;strokeColor=#666666;" vertex="1" parent="1">
          <mxGeometry x="480" y="160" width="200" height="40" as="geometry" />
        </mxCell>
        <mxCell id="TF-rLpj3DMXVE8Nql6JV-54" value="Smoke" style="whiteSpace=wrap;html=1;fillColor=#f5f5f5;strokeColor=#666666;fontColor=#333333;rounded=1;" vertex="1" parent="1">
          <mxGeometry x="440" y="240" width="120" height="40" as="geometry" />
        </mxCell>
        <mxCell id="TF-rLpj3DMXVE8Nql6JV-55" value="Тест критического пути" style="whiteSpace=wrap;html=1;fillColor=#f5f5f5;strokeColor=#666666;fontColor=#333333;rounded=1;" vertex="1" parent="1">
          <mxGeometry x="570" y="240" width="120" height="40" as="geometry" />
        </mxCell>
        <mxCell id="TF-rLpj3DMXVE8Nql6JV-56" value="Расширенный тест" style="whiteSpace=wrap;html=1;fillColor=#f5f5f5;strokeColor=#666666;fontColor=#333333;rounded=1;" vertex="1" parent="1">
          <mxGeometry x="700" y="240" width="120" height="40" as="geometry" />
        </mxCell>
        <mxCell id="TF-rLpj3DMXVE8Nql6JV-64" style="edgeStyle=orthogonalEdgeStyle;rounded=1;orthogonalLoop=1;jettySize=auto;html=1;exitX=0.25;exitY=1;exitDx=0;exitDy=0;entryX=0.5;entryY=0;entryDx=0;entryDy=0;fontColor=#FFFFFF;" edge="1" parent="1" source="TF-rLpj3DMXVE8Nql6JV-61" target="TF-rLpj3DMXVE8Nql6JV-62">
          <mxGeometry relative="1" as="geometry" />
        </mxCell>
        <mxCell id="TF-rLpj3DMXVE8Nql6JV-65" style="edgeStyle=orthogonalEdgeStyle;rounded=1;orthogonalLoop=1;jettySize=auto;html=1;exitX=0.473;exitY=1.01;exitDx=0;exitDy=0;entryX=0.5;entryY=0;entryDx=0;entryDy=0;fontColor=#FFFFFF;exitPerimeter=0;" edge="1" parent="1" source="TF-rLpj3DMXVE8Nql6JV-61" target="TF-rLpj3DMXVE8Nql6JV-70">
          <mxGeometry relative="1" as="geometry">
            <mxPoint x="404.9999999999998" y="400" as="targetPoint" />
            <Array as="points" />
          </mxGeometry>
        </mxCell>
        <mxCell id="TF-rLpj3DMXVE8Nql6JV-90" style="edgeStyle=orthogonalEdgeStyle;rounded=1;orthogonalLoop=1;jettySize=auto;html=1;exitX=0.75;exitY=1;exitDx=0;exitDy=0;fontColor=#FFFFFF;entryX=0.5;entryY=0;entryDx=0;entryDy=0;" edge="1" parent="1" source="TF-rLpj3DMXVE8Nql6JV-61" target="TF-rLpj3DMXVE8Nql6JV-91">
          <mxGeometry relative="1" as="geometry">
            <mxPoint x="640" y="400.0000000000001" as="targetPoint" />
          </mxGeometry>
        </mxCell>
        <mxCell id="TF-rLpj3DMXVE8Nql6JV-61" value="По цели" style="rounded=1;whiteSpace=wrap;html=1;fillColor=#f5f5f5;fontColor=#333333;strokeColor=#666666;" vertex="1" parent="1">
          <mxGeometry x="325.5" y="320" width="200" height="40" as="geometry" />
        </mxCell>
        <mxCell id="TF-rLpj3DMXVE8Nql6JV-62" value="Тестирование новой функциональности" style="whiteSpace=wrap;html=1;fillColor=#d5e8d4;strokeColor=#82b366;rounded=1;" vertex="1" parent="1">
          <mxGeometry x="160" y="400" width="140" height="40" as="geometry" />
        </mxCell>
        <mxCell id="TF-rLpj3DMXVE8Nql6JV-77" value="" style="edgeStyle=orthogonalEdgeStyle;rounded=1;orthogonalLoop=1;jettySize=auto;html=1;fontColor=#FFFFFF;" edge="1" parent="1" source="TF-rLpj3DMXVE8Nql6JV-70">
          <mxGeometry relative="1" as="geometry">
            <mxPoint x="420.0476190476188" y="610" as="targetPoint" />
          </mxGeometry>
        </mxCell>
        <mxCell id="TF-rLpj3DMXVE8Nql6JV-70" value="Regression" style="swimlane;fontStyle=0;childLayout=stackLayout;horizontal=1;startSize=26;fillColor=#d5e8d4;horizontalStack=0;resizeParent=1;resizeParentMax=0;resizeLast=0;collapsible=1;marginBottom=0;strokeColor=#82b366;" vertex="1" parent="1">
          <mxGeometry x="320" y="400" width="200" height="192" as="geometry">
            <mxRectangle x="320" y="400" width="100" height="30" as="alternateBounds" />
          </mxGeometry>
        </mxCell>
        <mxCell id="TF-rLpj3DMXVE8Nql6JV-71" value="Проводятся в каждом билде" style="text;align=left;verticalAlign=top;spacingLeft=4;spacingRight=4;overflow=hidden;rotatable=0;points=[[0,0.5],[1,0.5]];portConstraint=eastwest;fillColor=#f5f5f5;fontColor=#333333;strokeColor=#666666;" vertex="1" parent="TF-rLpj3DMXVE8Nql6JV-70">
          <mxGeometry y="26" width="200" height="26" as="geometry" />
        </mxCell>
        <mxCell id="TF-rLpj3DMXVE8Nql6JV-72" value="Проверка исправленных багов" style="text;align=left;verticalAlign=top;spacingLeft=4;spacingRight=4;overflow=hidden;rotatable=0;points=[[0,0.5],[1,0.5]];portConstraint=eastwest;fillColor=#f5f5f5;fontColor=#333333;strokeColor=#666666;" vertex="1" parent="TF-rLpj3DMXVE8Nql6JV-70">
          <mxGeometry y="52" width="200" height="26" as="geometry" />
        </mxCell>
        <mxCell id="TF-rLpj3DMXVE8Nql6JV-73" value="Проверка связанных &#xa;функциональностей" style="text;align=left;verticalAlign=top;spacingLeft=4;spacingRight=4;overflow=hidden;rotatable=0;points=[[0,0.5],[1,0.5]];portConstraint=eastwest;fillColor=#f5f5f5;fontColor=#333333;strokeColor=#666666;" vertex="1" parent="TF-rLpj3DMXVE8Nql6JV-70">
          <mxGeometry y="78" width="200" height="42" as="geometry" />
        </mxCell>
        <mxCell id="TF-rLpj3DMXVE8Nql6JV-74" value="Проводятся несколько раз" style="text;align=left;verticalAlign=top;spacingLeft=4;spacingRight=4;overflow=hidden;rotatable=0;points=[[0,0.5],[1,0.5]];portConstraint=eastwest;fillColor=#f5f5f5;fontColor=#333333;strokeColor=#666666;" vertex="1" parent="TF-rLpj3DMXVE8Nql6JV-70">
          <mxGeometry y="120" width="200" height="30" as="geometry" />
        </mxCell>
        <mxCell id="TF-rLpj3DMXVE8Nql6JV-75" value="Автоматизируются" style="text;align=left;verticalAlign=top;spacingLeft=4;spacingRight=4;overflow=hidden;rotatable=0;points=[[0,0.5],[1,0.5]];portConstraint=eastwest;fillColor=#f5f5f5;fontColor=#333333;strokeColor=#666666;" vertex="1" parent="TF-rLpj3DMXVE8Nql6JV-70">
          <mxGeometry y="150" width="200" height="42" as="geometry" />
        </mxCell>
        <mxCell id="TF-rLpj3DMXVE8Nql6JV-84" value="Выбор тестов для регрессии" style="swimlane;fontStyle=0;childLayout=stackLayout;horizontal=1;startSize=26;fillColor=#f5f5f5;horizontalStack=0;resizeParent=1;resizeParentMax=0;resizeLast=0;collapsible=1;marginBottom=0;fontColor=#333333;strokeColor=#666666;" vertex="1" parent="1">
          <mxGeometry x="320" y="610" width="200" height="192" as="geometry">
            <mxRectangle x="320" y="400" width="100" height="30" as="alternateBounds" />
          </mxGeometry>
        </mxCell>
        <mxCell id="TF-rLpj3DMXVE8Nql6JV-85" value="Безопасность" style="text;align=left;verticalAlign=top;spacingLeft=4;spacingRight=4;overflow=hidden;rotatable=0;points=[[0,0.5],[1,0.5]];portConstraint=eastwest;fillColor=#f5f5f5;fontColor=#333333;strokeColor=#666666;" vertex="1" parent="TF-rLpj3DMXVE8Nql6JV-84">
          <mxGeometry y="26" width="200" height="26" as="geometry" />
        </mxCell>
        <mxCell id="TF-rLpj3DMXVE8Nql6JV-86" value="Критичные функции" style="text;align=left;verticalAlign=top;spacingLeft=4;spacingRight=4;overflow=hidden;rotatable=0;points=[[0,0.5],[1,0.5]];portConstraint=eastwest;fillColor=#f5f5f5;fontColor=#333333;strokeColor=#666666;" vertex="1" parent="TF-rLpj3DMXVE8Nql6JV-84">
          <mxGeometry y="52" width="200" height="26" as="geometry" />
        </mxCell>
        <mxCell id="TF-rLpj3DMXVE8Nql6JV-87" value="Часто изменяемые функции" style="text;align=left;verticalAlign=top;spacingLeft=4;spacingRight=4;overflow=hidden;rotatable=0;points=[[0,0.5],[1,0.5]];portConstraint=eastwest;fillColor=#f5f5f5;fontColor=#333333;strokeColor=#666666;" vertex="1" parent="TF-rLpj3DMXVE8Nql6JV-84">
          <mxGeometry y="78" width="200" height="32" as="geometry" />
        </mxCell>
        <mxCell id="TF-rLpj3DMXVE8Nql6JV-88" value="Функции с большой вероятностью ошибки" style="text;align=left;verticalAlign=top;spacingLeft=4;spacingRight=4;overflow=hidden;rotatable=0;points=[[0,0.5],[1,0.5]];portConstraint=eastwest;fillColor=#f5f5f5;fontColor=#333333;strokeColor=#666666;whiteSpace=wrap;" vertex="1" parent="TF-rLpj3DMXVE8Nql6JV-84">
          <mxGeometry y="110" width="200" height="40" as="geometry" />
        </mxCell>
        <mxCell id="TF-rLpj3DMXVE8Nql6JV-89" value="Автоматизируются" style="text;align=left;verticalAlign=top;spacingLeft=4;spacingRight=4;overflow=hidden;rotatable=0;points=[[0,0.5],[1,0.5]];portConstraint=eastwest;fillColor=#f5f5f5;fontColor=#333333;strokeColor=#666666;" vertex="1" parent="TF-rLpj3DMXVE8Nql6JV-84">
          <mxGeometry y="150" width="200" height="42" as="geometry" />
        </mxCell>
        <mxCell id="TF-rLpj3DMXVE8Nql6JV-91" value="Retest" style="rounded=1;whiteSpace=wrap;html=1;fillColor=#d5e8d4;strokeColor=#82b366;" vertex="1" parent="1">
          <mxGeometry x="538" y="400" width="80" height="40" as="geometry" />
        </mxCell>
      </root>
    </mxGraphModel>
  </diagram>
</mxfile>
